Coordinates
version=1
nRows=17
nColumns=36
inDegrees=yes

Units are S.I. units (second, meters, Newtons, ...)
If the header above contains a line with 'inDegrees', this indicates whether rotational values are in degrees (yes) or radians (no).

endheader
time	pelvis_tilt	pelvis_list	pelvis_rotation	pelvis_tx	pelvis_ty	pelvis_tz	hip_flexion_r	hip_adduction_r	hip_rotation_r	knee_angle_r	knee_angle_r_beta	ankle_angle_r	subtalar_angle_r	mtp_angle_r	hip_flexion_l	hip_adduction_l	hip_rotation_l	knee_angle_l	knee_angle_l_beta	ankle_angle_l	subtalar_angle_l	mtp_angle_l	lumbar_extension	lumbar_bending	lumbar_rotation	arm_flex_r	arm_add_r	arm_rot_r	elbow_flex_r	pro_sup_r	arm_flex_l	arm_add_l	arm_rot_l	elbow_flex_l	pro_sup_l
      0.00000000	      1.63537793	     -0.58816563	      0.80402090	     -1.00293447	      1.38658711	     -0.07916913	     -8.06468960	      2.77387694	    -14.15425476	      0.09671852	      0.00168806	     10.81404815	     -5.81774952	     -5.13466958	     -7.97036494	     -0.66297638	    -12.61519694	      0.09816220	      0.00171325	      9.31904888	     -1.87519170	     -5.13466958	     -8.56960860	      1.67523373	      0.18691064	      6.30007725	     -4.27061379	     22.54200333	     24.00124602	     75.15139888	      3.41408378	     -6.61544364	     21.52188476	     28.08914502	     67.90203906
      0.00416670	     -0.04262628	     -0.47813961	      0.98474460	     -1.00187118	      1.38385913	     -0.08024858	     -6.26437519	      3.14363021	    -16.19518396	      0.10154726	      0.00177233	     12.82480746	     -3.03041522	     -5.95833177	     -5.96161602	     -0.15267188	    -15.32497749	      0.09440552	      0.00164769	     11.32158552	      0.85380622	     -5.95833177	     -6.27910292	      1.50726877	      0.52097077	      5.27537836	     -3.62317529	     17.13229772	     24.23112302	     78.23551818	      3.33784827	     -5.99215741	     19.53999910	     27.56800596	     69.32313706
      0.00833330	     -0.81961815	      0.12791219	      0.50371269	     -1.00208428	      1.38119592	     -0.07898855	     -5.32632395	      2.68454217	    -17.06604881	      0.09708127	      0.00169439	     13.12922791	     -3.31142870	     -6.22393582	     -5.09365994	      0.62197524	    -17.11255925	      0.09195943	      0.00160499	     12.55903878	      2.13264408	     -6.22393582	     -5.34121017	      0.39814989	      0.98667574	      5.17199951	     -2.94855454	     16.32813262	     24.04721594	     76.48804555	      3.59651248	     -6.34411729	     19.35407882	     27.39152223	     68.55386297
      0.01250000	     -1.10015037	      0.43865023	      0.41576412	     -1.00096146	      1.38128625	     -0.07791843	     -4.93061232	      2.34785542	    -18.26315061	      0.09201647	      0.00160599	     13.90985614	     -1.77303079	     -6.33287813	     -4.85222199	      1.00350608	    -18.72087270	      0.08428948	      0.00147113	     13.20679277	      3.27778254	     -6.33287813	     -4.86380218	     -0.30692305	      1.37591668	      4.75297977	     -2.61882001	     15.74339498	     24.34937513	     76.33475981	      3.79148435	     -7.04477457	     20.72890346	     27.61850572	     69.41816184
      0.01666670	     -1.36155429	      0.60709374	      0.28697126	     -1.00178184	      1.38287537	     -0.07836476	     -4.59997711	      2.20847541	    -18.53302888	      0.08817747	      0.00153899	     13.96437250	     -1.55923850	     -6.52305748	     -4.63029853	      1.25879807	    -19.43415686	      0.08104006	      0.00141442	     13.15761756	      3.61790278	     -6.52305748	     -4.56898002	     -0.63360379	      1.82501326	      4.40023711	     -2.64958980	     16.29876837	     24.84337036	     76.32580146	      4.20777140	     -7.55741386	     23.27051071	     27.62106899	     71.21159789
      0.02083330	     -1.45422228	      0.72081591	      0.19324748	     -1.00154036	      1.38181657	     -0.07831389	     -4.52283553	      2.07167957	    -18.65566910	      0.08549115	      0.00149210	     13.99120785	     -1.36824703	     -6.69892968	     -4.55295602	      1.42954680	    -19.96618087	      0.07969747	      0.00139098	     13.10492537	      3.70519622	     -6.69892968	     -4.40614748	     -0.79870670	      2.08932402	      4.32759040	     -2.78216103	     17.44013697	     25.07113605	     75.64271437	      4.38894132	     -7.79212238	     24.76062441	     27.84678478	     71.92194673
      0.02500000	     -1.58267577	      0.79175154	      0.15385330	     -1.00165142	      1.37988302	     -0.07771515	     -4.40918094	      1.99217199	    -18.62506194	      0.08335894	      0.00145489	     13.88637187	     -1.59445392	     -6.87378592	     -4.41180371	      1.53126304	    -20.11447481	      0.07924478	      0.00138308	     13.03013340	      3.71390450	     -6.87378592	     -4.24344583	     -0.88056473	      2.32891061	      4.33922178	     -3.06578018	     19.32945814	     25.28559616	     74.77321353	      4.64389662	     -8.04359759	     26.69153930	     28.04467909	     72.86013370
      0.02916670	     -1.66630979	      0.82589267	      0.18327373	     -1.00111707	      1.38162067	     -0.07720458	     -4.35420387	      1.94066454	    -18.57225198	      0.08141135	      0.00142090	     13.52120197	     -2.02643636	     -6.92759504	     -4.33508097	      1.56563422	    -19.92306631	      0.07890600	      0.00137717	     12.47238917	      3.09962627	     -6.92759504	     -4.16201980	     -0.92782194	      2.43833623	      4.17532609	     -3.17623071	     19.64150883	     25.77455061	     74.24243853	      4.60031825	     -8.09187608	     26.96028844	     28.55539940	     72.70828970
      0.03333330	     -1.63370113	      0.84142734	      0.08946424	     -1.00191494	      1.38065155	     -0.07757338	     -4.41005424	      1.91200566	    -18.59702107	      0.08027121	      0.00140100	     13.63636379	     -1.93365894	     -7.17114899	     -4.39704371	      1.59542930	    -20.17120985	      0.07976380	      0.00139214	     12.64513485	      3.55268966	     -7.17114899	     -4.22817203	     -0.92346843	      2.45968106	      4.34574479	     -3.47879008	     21.50183269	     25.68880415	     75.22875343	      4.75032533	     -8.19037115	     27.23493988	     28.33048554	     80.81005575
      0.03750000	     -1.66305150	      0.83717481	     -0.03782548	     -1.00299638	      1.37984974	     -0.07685306	     -4.34384599	      1.92665290	    -18.35314525	      0.07939823	      0.00138576	     13.43150154	     -2.33120692	     -7.21300546	     -4.33101779	      1.57849990	    -19.97570600	      0.07997061	      0.00139575	     12.53812909	      3.61818517	     -7.21300546	     -4.23607994	     -0.91045679	      2.60864128	      4.34016020	     -3.58665746	     21.86813319	     25.77575124	     74.53949660	      4.81084456	     -8.22715900	     27.60944417	     28.43853045	     79.90032241
      0.04166670	     -1.62354149	      0.81735437	     -0.04929740	     -1.00162752	      1.38096477	     -0.07630500	     -4.36187022	      1.97957781	    -18.45290619	      0.07822649	      0.00136531	     13.35811080	     -2.32615165	     -7.23349007	     -4.38992316	      1.52054862	    -19.84803112	      0.08021000	      0.00139993	     12.31864080	      3.36225089	     -7.23349007	     -4.31053875	     -0.87949435	      2.52077533	      4.34811890	     -3.67324561	     22.24992168	     25.86722778	     74.09635366	      4.83787187	     -8.32596358	     28.10164285	     28.41813975	     79.38612498
      0.04583330	     -2.02955910	      0.81396059	     -0.17036636	     -1.00302437	      1.38203723	     -0.07761792	     -3.88655172	      1.96111569	    -18.25070568	      0.07754480	      0.00135341	     13.02009383	     -2.66396748	     -7.25272189	     -3.93566955	      1.53230425	    -19.39486934	      0.07997689	      0.00139586	     11.95559549	      3.08210660	     -7.25272189	     -3.82581019	     -0.82821665	      2.53409419	      3.92373643	     -3.94276164	     22.39122714	     26.73248312	     73.72139624	      4.46226738	     -8.50736355	     28.29665414	     29.15568872	     78.88864982
      0.05000000	     -1.72768097	      0.79195516	     -0.21173988	     -1.00356799	      1.38173412	     -0.07824321	     -4.16139138	      1.98533714	    -18.33527740	      0.07664367	      0.00133768	     13.02580174	     -2.55892220	     -7.35049670	     -4.24634788	      1.50348761	    -20.09053507	      0.08030137	      0.00140152	     12.10716972	      3.89437179	     -7.35049670	     -4.25751696	     -0.74407116	      2.60869052	      4.34242567	     -4.13359392	     23.24209900	     26.17915556	     76.01645652	      5.10130356	     -8.54974450	     29.57706661	     28.14288466	     83.87219646
      0.05416670	     -1.72153474	      0.79318490	     -0.23719752	     -1.00375457	      1.37830941	     -0.07712981	     -4.12907089	      1.99429010	    -18.28900395	      0.07640598	      0.00133354	     13.01553928	     -2.56052407	     -7.36061503	     -4.26579414	      1.51225309	    -19.94596524	      0.08066515	      0.00140787	     12.10733672	      3.83176068	     -7.36061503	     -4.31538889	     -0.71189515	      2.64962135	      4.32812822	     -4.22742534	     23.25843296	     26.23019829	     75.79338234	      5.12450332	     -8.60603488	     29.76862759	     28.17601770	     83.61608979
      0.05833330	     -1.68079536	      0.75300253	     -0.26601188	     -1.00358145	      1.37872902	     -0.07710975	     -4.16976900	      2.03838423	    -18.28729889	      0.07632530	      0.00133213	     13.03569729	     -2.56310410	     -7.37504562	     -4.29508378	      1.45434646	    -20.02814277	      0.08085815	      0.00141124	     12.07969549	      3.88712644	     -7.37504562	     -4.38383587	     -0.62071469	      2.65431634	      4.31617349	     -4.34085283	     23.33748388	     26.34439558	     75.22057212	      5.15845541	     -8.70196652	     30.14049339	     28.16900596	     82.93443453
      0.06250000	     -1.70539556	      0.74953272	     -0.30072844	     -1.00290625	      1.38091007	     -0.07681141	     -4.12275965	      2.04831973	    -18.38166202	      0.07627714	      0.00133129	     13.00660294	     -2.56701959	     -7.39414565	     -4.26763379	      1.44146094	    -20.21293509	      0.08066714	      0.00140791	     12.01541519	      4.11517655	     -7.39414565	     -4.35524900	     -0.56577387	      2.69045570	      4.26389205	     -4.47240214	     23.49615058	     26.44835521	     74.80186153	      5.20805879	     -8.80428327	     30.77502669	     28.10034077	     82.64243899
      0.06666670	     -1.75453022	      0.73252957	     -0.32940290	     -1.00294609	      1.37824496	     -0.07647172	     -4.02921874	      2.08160956	    -18.26855675	      0.07566018	      0.00132052	     13.01915322	     -2.67207862	     -7.41223658	     -4.21732032	      1.41387704	    -20.30103123	      0.08039220	      0.00140311	     11.98090519	      4.22913193	     -7.41223658	     -4.27246059	     -0.52655375	      2.73650792	      4.23235081	     -4.52833455	     23.59825234	     26.43470716	     74.24074020	      5.26683249	     -8.88137045	     31.25667274	     27.98417598	     82.19053977
